# xmcd
#
# Track frame offsets:
#	150
#	17895
#	36053
#	57110
#	74808
#	94902
#	113287
#	130737
#	146209
#	166050
#
# Disc length: 2450 seconds
#
# Revision: 0
# Processed by: cddbd v1.5.2PL0 Copyright (c) Steve Scherf et al.
# Submitted via: dBpowerAMP V4.0
#
DISCID=8609900a
DTITLE=Набат - Живи и помни
DYEAR=2010
DGENRE=Pop
TTITLE0=01 - Разговор с жизнью
TTITLE1=02 - Дорожите временем
TTITLE2=03 - Мир тонет (remake)
TTITLE3=04 - Молитва
TTITLE4=05 - Я искал
TTITLE5=06 - Две дороги
TTITLE6=07 - Живи и помни
TTITLE7=08 - Что прошло, того не будет
TTITLE8=09 - Мечта
TTITLE9=10 - Живая вода
EXTD=Набат - Живи и помни - 2010
EXTT0=
EXTT1=
EXTT2=
EXTT3=
EXTT4=
EXTT5=
EXTT6=
EXTT7=
EXTT8=
EXTT9=
PLAYORDER=
